PathFileType	4	(X/Y/Z)	../Python\walking\Walking10\task.trc
DataRate	CameraRate	NumFrames	NumMarkers	Units	OrigDataRate	OrigDataStartFrame	OrigNumFrames
200.000000	200.000000	4	30	mm	200.000000	523	598
Frame#	Time	CLAV			STRN			RASI			LASI			RTH1			RTH2			RTH3			RTB1			RTB3			RD5M			RTOE			LTH1			LTH2			LTH3			LTB1			LTB2			LTB3			LTOE			LD5M			RTB2			T10			RHEE			C7			PE02			PE03			RPSI			LPSI			PE01			RBAK			LHEE			
		X1	Y1	Z1	X2	Y2	Z2	X3	Y3	Z3	X4	Y4	Z4	X5	Y5	Z5	X6	Y6	Z6	X7	Y7	Z7	X8	Y8	Z8	X9	Y9	Z9	X10	Y10	Z10	X11	Y11	Z11	X12	Y12	Z12	X13	Y13	Z13	X14	Y14	Z14	X15	Y15	Z15	X16	Y16	Z16	X17	Y17	Z17	X18	Y18	Z18	X19	Y19	Z19	X20	Y20	Z20	X21	Y21	Z21	X22	Y22	Z22	X23	Y23	Z23	X24	Y24	Z24	X25	Y25	Z25	X26	Y26	Z26	X27	Y27	Z27	X28	Y28	Z28	X29	Y29	Z29	X30	Y30	Z30	

524	2.615	2464.805908203126	1431.326171875	195.7229156494142	2517.146728515626	1237.994384765625	205.5005187988282	2488.443847656251	1040.161376953125	357.0233459472657	2493.859619140626	1014.500122070313	84.24057769775393	2451.910644531251	773.2351684570317	387.6311645507815	2393.935791015626	748.9979248046877	386.4663696289065	2414.151611328126	705.828552246094	369.1710510253907	2412.058837890626	364.0664978027345	308.4754333496095	2402.178466796876	286.1782531738282	294.8410644531251	2463.603027343751	10.00363063812256	283.9884033203126	2523.668212890626	25.19944572448732	239.991424560547	2477.140380859376	703.7683105468752	56.8518981933594	2470.918945312501	660.3618164062502	81.34444427490237	2524.821289062501	640.7110595703127	58.61026000976565	2464.801757812501	427.5592346191409	70.73600006103518	2419.421875000001	414.9692382812502	86.69866943359378	2431.526123046876	355.8568115234376	71.57966613769534	2357.391601562501	71.8497009277344	109.8975372314454	2316.107177734376	88.17803955078128	74.09841156005862	2369.001464843751	320.4008178710939	308.6935119628907	2291.563476562501	1266.039794921875	197.3907318115236	2306.147949218751	24.16468048095705	199.5913238525392	2351.209472656251	1522.237182617188	183.4856567382813	2321.038330078126	1062.8349609375	245.5221557617189	2318.145019531251	1058.396728515625	194.7344512939454	2326.295898437501	1076.917114257813	267.488250732422	2324.096679687501	1069.186401367188	168.1172332763672	2333.501708984376	1119.652221679688	213.6357269287111	2331.116943359376	1441.075561523438	358.063934326172	2211.327392578126	209.9500885009767	143.3885345458985	
525	2.62	2471.075195312501	1431.421264648438	196.0699310302736	2523.139404296876	1238.081420898438	206.1262969970704	2493.720947265626	1039.859741210938	357.6817321777345	2500.130859375001	1015.119140625	85.02909851074222	2456.193115234376	772.791137695313	387.6345214843752	2398.157226562501	748.8264770507815	386.2845764160159	2418.152099609376	705.5913085937502	369.0269470214845	2414.339843750001	363.9416809082032	308.0781555175782	2403.970703125001	286.0958862304689	294.4524536132814	2463.625244140626	10.00142765045166	283.9874267578126	2523.923583984376	25.08605384826662	239.9983215332032	2486.591796875001	705.104431152344	56.48516082763675	2480.464355468751	661.4597167968752	80.60862731933597	2534.893310546876	642.5607910156252	58.58356857299808	2477.596923828126	426.8277893066409	70.90372467041018	2432.398681640626	413.2857971191409	86.60288238525393	2445.903808593751	354.4250793457032	71.93052673339847	2378.894775390626	69.57496643066409	110.6662750244141	2337.268798828126	84.58869934082034	74.63381195068362	2371.006103515626	320.5314331054689	308.2866516113282	2297.577636718751	1266.369018554688	197.873016357422	2306.236572265626	24.46315193176271	199.3342132568361	2357.627441406251	1522.424072265625	183.7394256591797	2326.775146484376	1062.893432617188	245.2584838867189	2324.031738281251	1058.659057617188	194.4509582519532	2331.955078125001	1076.9111328125	267.3010559082032	2330.088867187501	1069.53955078125	167.8860931396485	2339.371337890626	1119.83056640625	213.661346435547	2337.460693359376	1441.5126953125	358.508758544922	2228.607177734376	203.3074645996095	143.1635131835938	
526	2.625	2477.350830078126	1431.474609375	196.4230041503907	2529.139404296876	1238.125122070313	206.7458038330079	2499.015625000001	1039.528564453125	358.3015441894532	2506.398681640626	1015.678527832032	85.78208923339847	2460.467285156251	772.3355102539067	387.6299133300784	2402.385742187501	748.640808105469	386.1083679199221	2422.150878906251	705.3384399414065	368.8823547363282	2416.617187500001	363.8068847656251	307.6832580566407	2405.761474609376	286.0086059570314	294.061004638672	2463.645996093751	9.999510765075687	283.9779663085939	2524.171386718751	24.98246574401857	239.9982910156251	2496.014892578126	706.4307250976565	56.08281707763675	2489.949951171876	662.5462036132815	79.81838989257815	2544.898681640626	644.396423339844	58.56576156616214	2490.343261718751	425.9111022949221	71.02298736572268	2445.345703125001	411.3940124511721	86.43550872802737	2460.309082031251	352.8153686523439	72.31363677978518	2400.577392578126	67.25946807861331	111.439193725586	2358.630859375001	80.93373870849612	75.18560028076175	2373.008300781251	320.655975341797	307.8815002441407	2303.599365234376	1266.656616210938	198.3363037109376	2306.335449218751	24.76148605346681	199.0668487548829	2364.049316406251	1522.56640625	183.9965209960938	2332.521240234376	1062.910278320313	244.9890441894532	2329.926513671876	1058.870971679688	194.1644439697267	2337.625244140626	1076.868530273438	267.1041259765626	2336.089843750001	1069.8388671875	167.6500091552735	2345.250488281251	1119.962524414063	213.669158935547	2343.801757812501	1441.900268554688	358.949188232422	2246.151611328126	196.436981201172	142.9939117431641	
527	2.63	2483.633789062501	1431.484375	196.7809448242189	2535.147949218751	1238.12353515625	207.3565063476564	2504.331054687501	1039.166381835938	358.8813476562501	2512.664550781251	1016.176513671875	86.49555969238284	2464.733642578126	771.8681030273442	387.6158752441409	2406.618408203126	748.442077636719	385.9375610351565	2426.145996093751	705.0703735351565	368.7373352050782	2418.885742187501	363.662567138672	307.2923278808595	2407.545898437501	285.9170532226564	293.6686401367189	2463.664062500001	9.998641014099125	283.9598388671876	2524.409423828126	24.88914489746095	239.9915313720704	2505.397216796876	707.7387695312502	55.65104293823245	2499.368652343751	663.6153564453127	78.98297119140628	2554.827148437501	646.2087402343752	58.56322860717776	2503.040039062501	424.815124511719	71.09890747070315	2458.265625000001	409.3001403808596	86.2060470581055	2474.739257812501	351.0388183593751	72.72766876220706	2422.434326171876	64.92656707763675	112.2015533447266	2380.189941406251	77.23950958251956	75.74306488037112	2375.002685546876	320.7749938964845	307.4796142578126	2309.628906250001	1266.90087890625	198.7806243896486	2306.446533203126	25.05811500549318	198.788787841797	2370.475830078126	1522.662963867188	184.2566528320313	2338.278564453126	1062.8857421875	244.7165985107423	2335.831298828126	1059.032470703125	193.8775939941407	2343.309082031251	1076.78955078125	266.8999633789064	2342.101562500001	1070.083251953125	167.4116668701172	2351.140625000001	1120.047485351563	213.6606292724611	2350.142089843751	1442.235961914063	359.3848571777345	2263.968017578126	189.358871459961	142.8856506347657	
